[Header]
FileType HTR
DataType HTRS
FileVersion 1
NumSegments 64
NumFrames 3
DataFrameRate 24
EulerRotationOrder ZYX
CalibrationUnits mm
RotationUnits Degrees
GlobalAxisofGravity Y
BoneLengthAxis Y
ScaleFactor 1.0
[SegmentNames&Hierarchy]
Hips	GLOBAL
Spine	Hips
Spine1	Spine
Spine2	Spine1
Neck	Spine2
Head	Neck
LeftEye	Head
RightEye	Head
LeftShoulder	Spine2
LeftArm	LeftShoulder
LeftForeArm	LeftArm
LeftHand	LeftForeArm
LeftHandThumb1	LeftHand
LeftHandThumb2	LeftHandThumb1
LeftHandThumb3	LeftHandThumb2
LeftHandThumb4	LeftHandThumb3
LeftHandIndex1	LeftHand
LeftHandIndex2	LeftHandIndex1
LeftHandIndex3	LeftHandIndex2
LeftHandIndex4	LeftHandIndex3
LeftHandMiddle1	LeftHand
LeftHandMiddle2	LeftHandMiddle1
LeftHandMiddle3	LeftHandMiddle2
LeftHandMiddle4	LeftHandMiddle3
LeftHandRing1	LeftHand
LeftHandRing2	LeftHandRing1
LeftHandRing3	LeftHandRing2
LeftHandRing4	LeftHandRing3
LeftHandPinky1	LeftHand
LeftHandPinky2	LeftHandPinky1
LeftHandPinky3	LeftHandPinky2
LeftHandPinky4	LeftHandPinky3
RightShoulder	Spine2
RightArm	RightShoulder
RightForeArm	RightArm
RightHand	RightForeArm
RightHandPinky1	RightHand
RightHandPinky2	RightHandPinky1
RightHandPinky3	RightHandPinky2
RightHandPinky4	RightHandPinky3
RightHandRing1	RightHand
RightHandRing2	RightHandRing1
RightHandRing3	RightHandRing2
RightHandRing4	RightHandRing3
RightHandMiddle1	RightHand
RightHandMiddle2	RightHandMiddle1
RightHandMiddle3	RightHandMiddle2
RightHandMiddle4	RightHandMiddle3
RightHandIndex1	RightHand
RightHandIndex2	RightHandIndex1
RightHandIndex3	RightHandIndex2
RightHandIndex4	RightHandIndex3
RightHandThumb1	RightHand
RightHandThumb2	RightHandThumb1
RightHandThumb3	RightHandThumb2
RightHandThumb4	RightHandThumb3
LeftUpLeg	Hips
LeftLeg	LeftUpLeg
LeftFoot	LeftLeg
LeftToeBase	LeftFoot
RightUpLeg	Hips
RightLeg	RightUpLeg
RightFoot	RightLeg
RightToeBase	RightFoot
[BasePosition]
Hips	0	0	0	0	0	0	1
Spine	0	0	0	0	0	0	1
Spine1	0	0	0	0	0	0	1
Spine2	0	0	0	0	0	0	1
Neck	0	0	0	0	0	0	1
Head	0	0	0	0	0	0	1
LeftEye	0	0	0	0	0	0	1
RightEye	0	0	0	0	0	0	1
LeftShoulder	0	0	0	0	0	0	1
LeftArm	0	0	0	0	0	0	1
LeftForeArm	0	0	0	0	0	0	1
LeftHand	0	0	0	0	0	0	1
LeftHandThumb1	0	0	0	0	0	0	1
LeftHandThumb2	0	0	0	0	0	0	1
LeftHandThumb3	0	0	0	0	0	0	1
LeftHandThumb4	0	0	0	0	0	0	1
LeftHandIndex1	0	0	0	0	0	0	1
LeftHandIndex2	0	0	0	0	0	0	1
LeftHandIndex3	0	0	0	0	0	0	1
LeftHandIndex4	0	0	0	0	0	0	1
LeftHandMiddle1	0	0	0	0	0	0	1
LeftHandMiddle2	0	0	0	0	0	0	1
LeftHandMiddle3	0	0	0	0	0	0	1
LeftHandMiddle4	0	0	0	0	0	0	1
LeftHandRing1	0	0	0	0	0	0	1
LeftHandRing2	0	0	0	0	0	0	1
LeftHandRing3	0	0	0	0	0	0	1
LeftHandRing4	0	0	0	0	0	0	1
LeftHandPinky1	0	0	0	0	0	0	1
LeftHandPinky2	0	0	0	0	0	0	1
LeftHandPinky3	0	0	0	0	0	0	1
LeftHandPinky4	0	0	0	0	0	0	1
RightShoulder	0	0	0	0	0	0	1
RightArm	0	0	0	0	0	0	1
RightForeArm	0	0	0	0	0	0	1
RightHand	0	0	0	0	0	0	1
RightHandPinky1	0	0	0	0	0	0	1
RightHandPinky2	0	0	0	0	0	0	1
RightHandPinky3	0	0	0	0	0	0	1
RightHandPinky4	0	0	0	0	0	0	1
RightHandRing1	0	0	0	0	0	0	1
RightHandRing2	0	0	0	0	0	0	1
RightHandRing3	0	0	0	0	0	0	1
RightHandRing4	0	0	0	0	0	0	1
RightHandMiddle1	0	0	0	0	0	0	1
RightHandMiddle2	0	0	0	0	0	0	1
RightHandMiddle3	0	0	0	0	0	0	1
RightHandMiddle4	0	0	0	0	0	0	1
RightHandIndex1	0	0	0	0	0	0	1
RightHandIndex2	0	0	0	0	0	0	1
RightHandIndex3	0	0	0	0	0	0	1
RightHandIndex4	0	0	0	0	0	0	1
RightHandThumb1	0	0	0	0	0	0	1
RightHandThumb2	0	0	0	0	0	0	1
RightHandThumb3	0	0	0	0	0	0	1
RightHandThumb4	0	0	0	0	0	0	1
LeftUpLeg	0	0	0	0	0	0	1
LeftLeg	0	0	0	0	0	0	1
LeftFoot	0	0	0	0	0	0	1
LeftToeBase	0	0	0	0	0	0	1
RightUpLeg	0	0	0	0	0	0	1
RightLeg	0	0	0	0	0	0	1
RightFoot	0	0	0	0	0	0	1
RightToeBase	0	0	0	0	0	0	1
[Hips]
12	-10.99075413	984.7775269	11.47954845	10.85238647	-53.58137131	-11.66248512	1.0
13	-11.16903496	984.7748413	11.12065411	10.93157578	-53.6026268	-11.75713348	1.0
14	-11.36202621	984.8259888	10.81942463	11.00072861	-53.61205673	-11.83653355	1.0
[Spine]
12	9.234152094e-05	101.8158798	1.31520927	3.045465946	6.551625252	3.304518461	1.0
13	9.234152094e-05	101.8158798	1.31520927	3.034799814	6.556922913	3.304971218	1.0
14	9.234152094e-05	101.8158798	1.31520927	3.019188166	6.562909603	3.304112434	1.0
[Spine1]
12	2.519402869e-06	100.8345108	-10.00804329	2.726294279	7.763716221	-0.128314659	1.0
13	2.519402869e-06	100.8345108	-10.00804329	2.713070393	7.767533302	-0.1346078962	1.0
14	2.519402869e-06	100.8345108	-10.00804329	2.69781208	7.77150631	-0.138890937	1.0
[Spine2]
12	3.4574864e-06	91.00010681	-13.73417091	2.783343315	7.771060944	-0.322603941	1.0
13	3.4574864e-06	91.00010681	-13.73417091	2.769924164	7.77482605	-0.3295186162	1.0
14	3.4574864e-06	91.00010681	-13.73417091	2.754531622	7.778607845	-0.3340263069	1.0
[Neck]
12	6.334285445e-06	166.7166901	-25.16167831	11.27527714	7.615816593	-2.922461748	1.0
13	6.334285445e-06	166.7166901	-25.16167831	11.28205013	7.612755299	-2.921262264	1.0
14	6.334285445e-06	166.7166901	-25.16167831	11.29441452	7.607802868	-2.917760372	1.0
[Head]
12	-4.242318937e-06	96.17874908	16.85007477	2.125294685	20.10498047	8.697052002	1.0
13	-4.242318937e-06	96.17874908	16.85007477	2.155539989	20.09074211	8.695594788	1.0
14	-4.242318937e-06	96.17874908	16.85007477	2.180120707	20.06647301	8.699245453	1.0
[LeftEye]
12	30.67560577	64.09507751	92.83554077	0	0	0	1.0
13	30.67560577	64.09507751	92.83554077	0	0	0	1.0
14	30.67560577	64.09507751	92.83554077	0	0	0	1.0
[RightEye]
12	-30.67550468	64.09500122	92.83547211	0	0	0	1.0
13	-30.67550468	64.09500122	92.83547211	0	0	0	1.0
14	-30.67550468	64.09500122	92.83547211	0	0	0	1.0
[LeftShoulder]
12	45.70446396	109.4598465	-26.27988052	2.677508593	5.936803341	-12.77436733	1.0
13	45.70446396	109.4598465	-26.27988052	2.68712306	5.910254478	-12.77560616	1.0
14	45.70446396	109.4598465	-26.27988052	2.692873478	5.884865284	-12.76275063	1.0
[LeftArm]
12	105.9236984	-5.245829105	-22.32120132	-29.72715187	-56.54355621	-17.33687782	1.0
13	105.9236984	-5.245829105	-22.32120132	-29.75801659	-56.54684448	-17.32056999	1.0
14	105.9236984	-5.245829105	-22.32120132	-29.76414871	-56.54025269	-17.31665421	1.0
[LeftForeArm]
12	278.4151917	-0.0008942864952	0.0003745891154	1.160908687e-05	-82.67290497	-0.0002046349255	1.0
13	278.4151917	-0.0008942864952	0.0003745891154	-4.018217442e-05	-82.66809845	-0.0001325667981	1.0
14	278.4151917	-0.0008942864952	0.0003745891154	-7.454295701e-05	-82.65180969	-8.589649951e-05	1.0
[LeftHand]
12	283.2883911	-0.0001744071778	0.0003780452244	-47.18789673	47.80955505	0.5909210443	1.0
13	283.2883911	-0.0001744071778	0.0003780452244	-47.21309662	47.84782791	0.489890635	1.0
14	283.2883911	-0.0001744071778	0.0003780452244	-47.25862885	47.85137939	0.4316652119	1.0
[LeftHandThumb1]
12	24.66140366	-15.7504921	26.82413483	-12.29798794	13.35949898	9.401165009	1.0
13	24.66140366	-15.7504921	26.82413483	-12.29798794	13.35949898	9.401165009	1.0
14	24.66140366	-15.7504921	26.82413483	-12.29798794	13.35949898	9.401165009	1.0
[LeftHandThumb2]
12	32.29803848	-18.6469059	18.64681244	-0.2483453304	-4.311873436	13.28869915	1.0
13	32.29803848	-18.6469059	18.64681244	-0.2483453304	-4.311873436	13.28869915	1.0
14	32.29803848	-18.6469059	18.64681244	-0.2483453304	-4.311873436	13.28869915	1.0
[LeftHandThumb3]
12	26.52565002	-15.31492996	15.31471634	-9.976514816	-23.52258492	0.1755283028	1.0
13	26.52565002	-15.31492996	15.31471634	-9.976514816	-23.52258492	0.1755283028	1.0
14	26.52565002	-15.31492996	15.31471634	-9.976514816	-23.52258492	0.1755283028	1.0
[LeftHandThumb4]
12	19.54566956	-11.2850008	11.28492165	0	0	0	1.0
13	19.54566956	-11.2850008	11.28492165	0	0	0	1.0
14	19.54566956	-11.2850008	11.28492165	0	0	0	1.0
[LeftHandIndex1]
12	91.09301758	-5.170834064	22.6007309	-2.034207106	1.761208534	-31.54689026	1.0
13	91.09301758	-5.170834064	22.6007309	-2.034207106	1.761208534	-31.54689026	1.0
14	91.09301758	-5.170834064	22.6007309	-2.034207106	1.761208534	-31.54689026	1.0
[LeftHandIndex2]
12	36.76409531	-6.939138257e-05	0.0002924251603	-3.082290649	5.140966415	-61.86808395	1.0
13	36.76409531	-6.939138257e-05	0.0002924251603	-3.082290649	5.140966415	-61.86808395	1.0
14	36.76409531	-6.939138257e-05	0.0002924251603	-3.082290649	5.140966415	-61.86808395	1.0
[LeftHandIndex3]
12	28.83062553	0.000385119667	-0.0004276481632	-0.5015913248	2.368166685	-23.91410255	1.0
13	28.83062553	0.000385119667	-0.0004276481632	-0.5015913248	2.368166685	-23.91410255	1.0
14	28.83062553	0.000385119667	-0.0004276481632	-0.5015913248	2.368166685	-23.91410255	1.0
[LeftHandIndex4]
12	23.92720032	0.0003702590766	0.0003355443478	0	0	0	1.0
13	23.92720032	0.0003702590766	0.0003355443478	0	0	0	1.0
14	23.92720032	0.0003702590766	0.0003355443478	0	0	0	1.0
[LeftHandMiddle1]
12	95.33401489	-0.000339240476	0.0001393702551	-2.959770441	-0.3316034675	-41.48937225	1.0
13	95.33401489	-0.000339240476	0.0001393702551	-2.959770441	-0.3316034675	-41.48937225	1.0
14	95.33401489	-0.000339240476	0.0001393702551	-2.959770441	-0.3316034675	-41.48937225	1.0
[LeftHandMiddle2]
12	36.98236847	1.961359158e-05	0.0001791696704	-2.939359903	5.06229353	-60.2610817	1.0
13	36.98236847	1.961359158e-05	0.0001791696704	-2.939359903	5.06229353	-60.2610817	1.0
14	36.98236847	1.961359158e-05	0.0001791696704	-2.939359903	5.06229353	-60.2610817	1.0
[LeftHandMiddle3]
12	29.50921631	-0.0003937608562	0.0001644795993	-1.315997601	3.691623449	-39.22911072	1.0
13	29.50921631	-0.0003937608562	0.0001644795993	-1.315997601	3.691623449	-39.22911072	1.0
14	29.50921631	-0.0003937608562	0.0001644795993	-1.315997601	3.691623449	-39.22911072	1.0
[LeftHandMiddle4]
12	28.3390255	-0.0003893481917	-9.504223272e-05	0	0	0	1.0
13	28.3390255	-0.0003893481917	-9.504223272e-05	0	0	0	1.0
14	28.3390255	-0.0003893481917	-9.504223272e-05	0	0	0	1.0
[LeftHandRing1]
12	91.04527283	-0.4393950403	-18.65084648	-3.775710106	-4.751326084	-49.6909523	1.0
13	91.04527283	-0.4393950403	-18.65084648	-3.775710106	-4.751326084	-49.6909523	1.0
14	91.04527283	-0.4393950403	-18.65084648	-3.775710106	-4.751326084	-49.6909523	1.0
[LeftHandRing2]
12	31.54026794	-6.55346812e-05	0.000104257444	-3.032872438	5.114353657	-61.31506729	1.0
13	31.54026794	-6.55346812e-05	0.000104257444	-3.032872438	5.114353657	-61.31506729	1.0
14	31.54026794	-6.55346812e-05	0.000104257444	-3.032872438	5.114353657	-61.31506729	1.0
[LeftHandRing3]
12	29.37672424	-0.0004545861739	-6.864757597e-05	-0.350160718	1.992284179	-19.93597984	1.0
13	29.37672424	-0.0004545861739	-6.864757597e-05	-0.350160718	1.992284179	-19.93597984	1.0
14	29.37672424	-0.0004545861739	-6.864757597e-05	-0.350160718	1.992284179	-19.93597984	1.0
[LeftHandRing4]
12	26.47452545	-0.0004980441299	7.070515267e-07	0	0	0	1.0
13	26.47452545	-0.0004980441299	7.070515267e-07	0	0	0	1.0
14	26.47452545	-0.0004980441299	7.070515267e-07	0	0	0	1.0
[LeftHandPinky1]
12	80.77777863	-4.886682034	-38.06066895	-2.494308233	-10.25931644	-37.81870651	1.0
13	80.77777863	-4.886682034	-38.06066895	-2.494308233	-10.25931644	-37.81870651	1.0
14	80.77777863	-4.886682034	-38.06066895	-2.494308233	-10.25931644	-37.81870651	1.0
[LeftHandPinky2]
12	36.00034332	-2.252215199e-05	-0.0002623879409	-2.836258411	5.002195358	-59.08558273	1.0
13	36.00034332	-2.252215199e-05	-0.0002623879409	-2.836258411	5.002195358	-59.08558273	1.0
14	36.00034332	-2.252215199e-05	-0.0002623879409	-2.836258411	5.002195358	-59.08558273	1.0
[LeftHandPinky3]
12	21.14211655	0.0001953828178	-2.864415183e-05	-0.872974813	3.07111001	-31.72867775	1.0
13	21.14211655	0.0001953828178	-2.864415183e-05	-0.872974813	3.07111001	-31.72867775	1.0
14	21.14211655	0.0001953828178	-2.864415183e-05	-0.872974813	3.07111001	-31.72867775	1.0
[LeftHandPinky4]
12	19.7568264	0.0001240565616	-0.0004430140834	0	0	0	1.0
13	19.7568264	0.0001240565616	-0.0004430140834	0	0	0	1.0
14	19.7568264	0.0001240565616	-0.0004430140834	0	0	0	1.0
[RightShoulder]
12	-45.69969559	109.4617615	-26.28017426	-14.70875168	1.340747952	-4.191723824	1.0
13	-45.69969559	109.4617615	-26.28017426	-14.71145916	1.346159697	-4.221253395	1.0
14	-45.69969559	109.4617615	-26.28017426	-14.71787262	1.341522336	-4.2680583	1.0
[RightArm]
12	-105.9284363	-5.247983932	-22.32098579	-64.38650513	118.7674789	-18.76041603	1.0
13	-105.9284363	-5.247983932	-22.32098579	-64.49555969	118.7409897	-18.82645798	1.0
14	-105.9284363	-5.247983932	-22.32098579	-64.52156067	118.7216949	-18.83200073	1.0
[RightForeArm]
12	-278.4151917	-0.0003307921579	0.0001167631053	-1.273557064e-05	30.51277351	-7.632786946e-06	1.0
13	-278.4151917	-0.0003307921579	0.0001167631053	-8.474823517e-06	30.57189941	-5.168169082e-06	1.0
14	-278.4151917	-0.0003307921579	0.0001167631053	-5.865675121e-06	30.58064461	-3.259481446e-06	1.0
[RightHand]
12	-283.2883911	-1.581417109e-06	0.000558160129	-42.42699051	-29.80983543	-15.93983555	1.0
13	-283.2883911	-1.581417109e-06	0.000558160129	-42.43212891	-29.90055084	-15.94336033	1.0
14	-283.2883911	-1.581417109e-06	0.000558160129	-42.4631958	-29.94718933	-15.94445705	1.0
[RightHandPinky1]
12	-80.76674652	-4.88459301	-38.06010437	-4.179559231	-3.048670053	59.07947159	1.0
13	-80.76674652	-4.88459301	-38.06010437	-4.179559231	-3.048670053	59.07947159	1.0
14	-80.76674652	-4.88459301	-38.06010437	-4.179559231	-3.048670053	59.07947159	1.0
[RightHandPinky2]
12	-36.00034332	0.0003967665543	0.0005081442068	-3.174546003	-4.396142006	71.67469025	1.0
13	-36.00034332	0.0003967665543	0.0005081442068	-3.174546003	-4.396142006	71.67469025	1.0
14	-36.00034332	0.0003967665543	0.0005081442068	-3.174546003	-4.396142006	71.67469025	1.0
[RightHandPinky3]
12	-21.14211655	0.0001513792522	0.0001479376951	-1.761317968	-3.635984421	51.6805954	1.0
13	-21.14211655	0.0001513792522	0.0001479376951	-1.761317968	-3.635984421	51.6805954	1.0
14	-21.14211655	0.0001513792522	0.0001479376951	-1.761317968	-3.635984421	51.6805954	1.0
[RightHandPinky4]
12	-19.7568264	-0.000185219571	-9.839841368e-06	0	0	0	1.0
13	-19.7568264	-0.000185219571	-9.839841368e-06	0	0	0	1.0
14	-19.7568264	-0.000185219571	-9.839841368e-06	0	0	0	1.0
[RightHandRing1]
12	-91.03588104	-0.4391434789	-18.65072441	-4.049632549	-6.933060169	57.63954544	1.0
13	-91.03588104	-0.4391434789	-18.65072441	-4.049632549	-6.933060169	57.63954544	1.0
14	-91.03588104	-0.4391434789	-18.65072441	-4.049632549	-6.933060169	57.63954544	1.0
[RightHandRing2]
12	-31.54026794	0.0002399729856	0.0004885121016	-5.297682285	-4.582300186	98.2931366	1.0
13	-31.54026794	0.0002399729856	0.0004885121016	-5.297682285	-4.582300186	98.2931366	1.0
14	-31.54026794	0.0002399729856	0.0004885121016	-5.297682285	-4.582300186	98.2931366	1.0
[RightHandRing3]
12	-29.37672424	-0.0004160065437	-0.0003966063377	-1.618076921	-3.518265247	49.38505554	1.0
13	-29.37672424	-0.0004160065437	-0.0003966063377	-1.618076921	-3.518265247	49.38505554	1.0
14	-29.37672424	-0.0004160065437	-0.0003966063377	-1.618076921	-3.518265247	49.38505554	1.0
[RightHandRing4]
12	-26.47452545	0.0002460821415	-2.294923434e-05	0	0	0	1.0
13	-26.47452545	0.0002460821415	-2.294923434e-05	0	0	0	1.0
14	-26.47452545	0.0002460821415	-2.294923434e-05	0	0	0	1.0
[RightHandMiddle1]
12	-95.32502747	-0.0001631230261	0.0001679184206	-3.53036809	-16.46828079	52.07723618	1.0
13	-95.32502747	-0.0001631230261	0.0001679184206	-3.53036809	-16.46828079	52.07723618	1.0
14	-95.32502747	-0.0001631230261	0.0001679184206	-3.53036809	-16.46828079	52.07723618	1.0
[RightHandMiddle2]
12	-36.98236847	0.000150669599	-0.0002254552383	-6.350979805	-4.299677372	111.8329315	1.0
13	-36.98236847	0.000150669599	-0.0002254552383	-6.350979805	-4.299677372	111.8329315	1.0
14	-36.98236847	0.000150669599	-0.0002254552383	-6.350979805	-4.299677372	111.8329315	1.0
[RightHandMiddle3]
12	-29.50921631	-3.113244929e-06	-3.03402544e-06	-0.2459617406	-1.492588997	18.73979759	1.0
13	-29.50921631	-3.113244929e-06	-3.03402544e-06	-0.2459617406	-1.492588997	18.73979759	1.0
14	-29.50921631	-3.113244929e-06	-3.03402544e-06	-0.2459617406	-1.492588997	18.73979759	1.0
[RightHandMiddle4]
12	-28.3390255	8.05324089e-05	0.0005378770875	0	0	0	1.0
13	-28.3390255	8.05324089e-05	0.0005378770875	0	0	0	1.0
14	-28.3390255	8.05324089e-05	0.0005378770875	0	0	0	1.0
[RightHandIndex1]
12	-91.08280945	-5.167889595	22.60116386	-1.387360573	-4.207729816	25.46813583	1.0
13	-91.08280945	-5.167889595	22.60116386	-1.387360573	-4.207729816	25.46813583	1.0
14	-91.08280945	-5.167889595	22.60116386	-1.387360573	-4.207729816	25.46813583	1.0
[RightHandIndex2]
12	-36.76409531	0.0001922715601	0.0003235567128	-1.643622756	-3.539990187	49.80016327	1.0
13	-36.76409531	0.0001922715601	0.0003235567128	-1.643622756	-3.539990187	49.80016327	1.0
14	-36.76409531	0.0001922715601	0.0003235567128	-1.643622756	-3.539990187	49.80016327	1.0
[RightHandIndex3]
12	-28.83062553	-0.0004960121587	0.0004044897505	-1.727792621	-3.609309912	51.15027237	1.0
13	-28.83062553	-0.0004960121587	0.0004044897505	-1.727792621	-3.609309912	51.15027237	1.0
14	-28.83062553	-0.0004960121587	0.0004044897505	-1.727792621	-3.609309912	51.15027237	1.0
[RightHandIndex4]
12	-23.92720032	0.0002681470069	0.0002802013478	0	0	0	1.0
13	-23.92720032	0.0002681470069	0.0002802013478	0	0	0	1.0
14	-23.92720032	0.0002681470069	0.0002802013478	0	0	0	1.0
[RightHandThumb1]
12	-24.64805984	-15.72714233	26.82626534	7.322416306	-6.350176334	10.24958611	1.0
13	-24.64805984	-15.72714233	26.82626534	7.322416306	-6.350176334	10.24958611	1.0
14	-24.64805984	-15.72714233	26.82626534	7.322416306	-6.350176334	10.24958611	1.0
[RightHandThumb2]
12	-32.29771805	-18.6470871	18.64718437	26.54580307	-9.159310341	-24.03568459	1.0
13	-32.29771805	-18.6470871	18.64718437	26.54580307	-9.159310341	-24.03568459	1.0
14	-32.29771805	-18.6470871	18.64718437	26.54580307	-9.159310341	-24.03568459	1.0
[RightHandThumb3]
12	-26.52605057	-15.31449318	15.31445599	31.8479023	-40.59857559	-44.24287415	1.0
13	-26.52605057	-15.31449318	15.31445599	31.8479023	-40.59857559	-44.24287415	1.0
14	-26.52605057	-15.31449318	15.31445599	31.8479023	-40.59857559	-44.24287415	1.0
[RightHandThumb4]
12	-19.54580498	-11.28461742	11.28507042	0	0	0	1.0
13	-19.54580498	-11.28461742	11.28507042	0	0	0	1.0
14	-19.54580498	-11.28461742	11.28507042	0	0	0	1.0
[LeftUpLeg]
12	82.07781982	-67.51714325	-15.99555588	-27.69746971	19.0053215	15.80383396	1.0
13	82.07781982	-67.51714325	-15.99555588	-27.68964767	19.02562523	15.87087727	1.0
14	82.07781982	-67.51714325	-15.99555588	-27.67427826	19.03844261	15.92642689	1.0
[LeftLeg]
12	-4.110157988e-06	-443.7047119	2.846426487	28.05561256	8.386536598	4.971069336	1.0
13	-4.110157988e-06	-443.7047119	2.846426487	28.0352211	8.371639252	4.999185085	1.0
14	-4.110157988e-06	-443.7047119	2.846426487	27.99282837	8.359527588	5.021814823	1.0
[LeftFoot]
12	4.716393505e-06	-444.278717	-29.82190704	3.094516516	6.62047863	-8.607701302	1.0
13	4.716393505e-06	-444.278717	-29.82190704	3.122174978	6.624628544	-8.649177551	1.0
14	4.716393505e-06	-444.278717	-29.82190704	3.156794786	6.627160072	-8.68346405	1.0
[LeftToeBase]
12	-2.960988058e-05	-87.28669739	107.1055984	1.342095857e-07	-3.222650776e-06	-1.754975301e-06	1.0
13	-2.960988058e-05	-87.28669739	107.1055984	1.342095857e-07	-3.222650776e-06	-1.754975301e-06	1.0
14	-2.960988058e-05	-87.28669739	107.1055984	1.342095857e-07	-3.222650776e-06	-1.754975301e-06	1.0
[RightUpLeg]
12	-82.07795715	-67.51662445	-15.99559402	-13.65033531	-15.27178764	-5.553335667	1.0
13	-82.07795715	-67.51662445	-15.99559402	-13.66112614	-15.29033661	-5.509031773	1.0
14	-82.07795715	-67.51662445	-15.99559402	-13.65764713	-15.2882967	-5.460967541	1.0
[RightLeg]
12	8.435572454e-07	-443.7053833	2.861563921	23.33066177	8.184276581	2.479309559	1.0
13	8.435572454e-07	-443.7053833	2.861563921	23.34444809	8.156521797	2.5490942	1.0
14	8.435572454e-07	-443.7053833	2.861563921	23.32964706	8.138196945	2.591685772	1.0
[RightFoot]
12	9.644581951e-06	-444.2773132	-29.83789063	-9.471360207	-8.6885252	13.59794903	1.0
13	9.644581951e-06	-444.2773132	-29.83789063	-9.452025414	-8.658240318	13.52160549	1.0
14	9.644581951e-06	-444.2773132	-29.83789063	-9.434134483	-8.65942955	13.46590233	1.0
[RightToeBase]
12	-2.360438157e-05	-87.28668976	107.1056061	-2.270344567e-06	3.233250936e-06	2.690227348e-06	1.0
13	-2.360438157e-05	-87.28668976	107.1056061	-2.270344567e-06	3.233250936e-06	2.690227348e-06	1.0
14	-2.360438157e-05	-87.28668976	107.1056061	-2.270344567e-06	3.233250936e-06	2.690227348e-06	1.0
[EndOfFile]
